<?xml version="1.0" standalone="no"?>
<!DOCTYPE svg PUBLIC "-//W3C//DTD SVG 20010904//EN"
 "http://www.w3.org/TR/2001/REC-SVG-20010904/DTD/svg10.dtd">
<svg version="1.0" xmlns="http://www.w3.org/2000/svg"
 width="300.000000pt" height="300.000000pt" viewBox="0 0 300.000000 300.000000"
 preserveAspectRatio="xMidYMid meet">
<metadata>
Created by potrace 1.11, written by Peter Selinger 2001-2013
</metadata>
<g transform="translate(0.000000,300.000000) scale(0.100000,-0.100000)"
fill="#000000" stroke="none">
<path d="M568 2565 c-2 -1 -28 -5 -58 -8 -316 -35 -514 -247 -505 -543 3 -104
12 -146 46 -223 55 -121 147 -214 267 -266 l43 -18 -57 -24 c-191 -77 -307
-272 -299 -500 9 -227 130 -403 330 -478 141 -53 210 -60 620 -60 l330 0 0
108 1 107 -306 1 c-321 1 -325 1 -417 18 -177 33 -278 153 -276 328 1 109 45
195 128 252 84 58 122 63 565 65 l305 1 0 178 1 177 -291 1 c-386 1 -437 6
-542 56 -222 104 -222 460 0 567 75 36 162 44 518 44 l314 0 0 111 1 112 -357
-1 c-197 -1 -359 -3 -361 -5z"/>
<path d="M1379 2553 c-1 -23 -1 -2095 0 -2108 1 -8 209 -14 249 -6 4 0 7 480
7 1066 l0 1065 -127 0 c-115 0 -128 -2 -129 -17z"/>
<path d="M1711 2461 c-1 -61 2 -112 6 -112 4 -1 166 -3 358 -4 193 -2 359 -5
370 -8 130 -31 192 -77 238 -175 26 -57 31 -78 31 -147 0 -160 -85 -269 -240
-309 -94 -24 -166 -28 -471 -30 l-288 -1 -2 -112 -2 -113 340 1 c187 1 359 5
382 10 23 4 60 10 81 13 136 21 250 77 332 161 108 112 155 242 149 415 -6
176 -81 319 -214 408 -59 39 -189 87 -271 98 -25 4 -214 9 -421 11 l-376 5 -2
-111z"/>
</g>
</svg>
